<?xml version="1.0" encoding="utf-8"?>
<!-- Generator: Adobe Illustrator 17.0.0, SVG Export Plug-In . SVG Version: 6.00 Build 0)  -->
<!DOCTYPE svg PUBLIC "-//W3C//DTD SVG 1.1//EN" "http://www.w3.org/Graphics/SVG/1.1/DTD/svg11.dtd">
<svg version="1.1" xmlns="http://www.w3.org/2000/svg" xmlns:xlink="http://www.w3.org/1999/xlink" x="0px" y="0px" width="300px"
	 height="150px" viewBox="0 0 300 150" enable-background="new 0 0 300 150" xml:space="preserve">
<g id="Layer_4">
	<rect fill="#ECDFBD" stroke="#000000" stroke-miterlimit="10" width="300" height="150"/>
</g>
<g id="duck">
	<g>
		<path fill="#3E6169" d="M81.738,121.68c0.099,1.358,0.176,2.563,0.289,3.764c0.014,0.15,0.197,0.312,0.34,0.416
			c0.216,0.158,0.469,0.262,0.699,0.401c1.877,1.144,2.681,2.959,1.904,4.993c-0.266,0.698-1.152,1.332-1.901,1.641
			c-2.023,0.836-4.189,1.003-6.355,0.736c-1.23-0.151-2.487-0.353-3.643-0.776c-2.37-0.867-3.073-3.677-1.434-5.539
			c0.302-0.343,0.887-0.443,1.348-0.637c1.077-0.454,2.183-0.847,3.231-1.359c0.854-0.417,1.537-1.312,2.834-0.54
			c-0.103-1.234-0.151-2.203-0.271-3.163c-0.4-3.178-0.541-6.426-1.324-9.509c-0.765-3.011-2.098-5.897-3.387-8.745
			c-0.463-1.023-1.502-1.796-2.319-2.645c-2.248-2.336-3.328-5.204-3.767-8.339c-0.172-1.228-0.139-2.484-0.208-3.727
			c-0.093-1.682-0.295-3.365-0.264-5.045c0.032-1.748,0.147-3.518,0.474-5.231c0.562-2.95,0.378-5.791-0.382-8.694
			c-0.564-2.154,0.024-4.208,1.604-5.895c1.422-1.517,2.96-2.95,4.206-4.602c1.949-2.586,2.443-5.741,2.917-8.851
			c0.498-3.262,0.201-6.453-0.925-9.579c-0.717-1.993-1.824-3.737-3.423-5.053c-2.464-2.028-4.17-4.676-6.175-7.078
			c-1.296-1.552-2.613-3.099-3.765-4.757c-0.838-1.206-1.486-2.559-2.081-3.908c-0.19-0.43-0.127-1.335,0.157-1.53
			c0.486-0.333,1.274-0.462,1.873-0.349c1.54,0.292,2.646,1.249,3.605,2.516c1.514,2,3.464,3.276,6.157,3.01
			c5.128-0.506,8.53,3.111,9.871,7.054c1.81,5.323,2.857,10.76,2.826,16.389c-0.025,4.524-0.196,9.05-0.098,13.571
			c0.082,3.81,0.481,7.612,0.696,11.42c0.151,2.671,0.38,5.327,1.386,7.835c1.135,2.83,2.598,5.464,4.586,7.817
			c1.87,2.214,4.069,3.983,6.475,5.571c2.719,1.795,5.317,3.772,7.994,5.632c1.519,1.055,3.129,1.98,4.627,3.063
			c1.107,0.801,1.004,1.451-0.159,2.14c-1.808,1.072-3.861,1.261-5.855,1.35c-3.907,0.174-7.57,1.162-11.103,2.747
			c-0.61,0.274-1.181,0.648-1.737,1.024c-0.152,0.103-0.27,0.383-0.263,0.577c0.058,1.756,0.158,3.511,0.222,5.266
			c0.024,0.655,0.315,1.032,0.842,1.458c0.692,0.56,1.476,1.321,1.664,2.126c0.478,2.046-0.68,3.323-2.944,3.724
			c-2.721,0.482-5.374,0.073-8.021-0.508C82.502,121.809,82.238,121.77,81.738,121.68z M88.78,114.94
			c-0.1-1.646-0.184-3.01-0.279-4.571c-2.904,1.076-5.108-0.529-7.619-1.699c0.117,2.697,0.224,5.158,0.33,7.586
			c0.835-0.07,1.442-0.063,2.023-0.184c0.779-0.162,1.636-0.268,2.281-0.679C86.499,114.767,87.401,114.213,88.78,114.94z"/>
	</g>
</g>
<g id="lemma">
	<text transform="matrix(1 0 0 1 94 86.5737)" fill="#3E6169" font-family="'Biko'" font-size="43.0303">lemma</text>
</g>
<g id="pictures">
	<text transform="matrix(1 0 0 1 202.8771 95.086)" fill="#3E6169" font-family="'Biko-Bold'" font-size="8">pictures</text>
</g>
</svg>
